<svg width="893" height="294" viewBox="0 0 893 294" fill="none" xmlns="http://www.w3.org/2000/svg">
<path d="M719.779 158.131C719.779 108.459 756.247 75.1357 806.547 75.1357C856.532 75.1357 893 108.459 893 158.131C893 207.802 856.532 240.811 806.547 240.811C756.247 240.811 719.779 207.802 719.779 158.131ZM768.507 157.816C768.507 181.709 783.912 197.428 806.547 197.428C828.867 197.428 844.272 181.709 844.272 157.816C844.272 134.238 828.867 118.519 806.547 118.519C783.912 118.519 768.507 134.238 768.507 157.816Z" fill="#E8833A"/>
<path d="M691.947 237.039H643.534V0H659.947C677.62 0 691.947 14.3269 691.947 32V237.039Z" fill="#E8833A"/>
<path d="M508.384 293.627C485.12 293.627 465.315 283.567 454.626 272.563L470.569 239C471.499 237.041 474.141 236.685 475.639 238.254C484.67 247.706 495.015 254.015 507.127 254.015C519.073 254.015 525.989 249.928 531.019 235.153L534.163 226.979H506.812L456.827 82.9951H506.498L528.504 155.616L539.822 207.173L551.453 155.616L573.145 82.9951H623.76L568.43 246.47C556.484 280.737 537.307 293.627 508.384 293.627Z" fill="#1C1917"/>
<path d="M344.003 240.497C320.11 240.497 303.448 227.608 303.448 202.772C303.448 179.508 318.224 165.99 347.461 155.93L394.617 138.325C393.045 125.436 387.072 118.205 370.096 118.205C350.604 118.205 332.685 129.208 321.996 144.613L299.361 111.918C314.766 95.2557 340.23 79.8513 373.239 79.8513C412.222 79.8513 434.857 100.6 434.857 139.268V192.083C434.857 199 437.372 201.2 443.031 201.2H452.148V237.039H425.74C409.078 237.039 393.988 229.494 393.988 207.488V197.113C388.958 217.233 375.44 240.497 344.003 240.497ZM344.946 196.17C344.946 203.401 349.976 207.488 360.664 207.488C382.042 207.488 393.988 196.799 393.988 177.936V167.248L361.293 180.766C349.032 185.796 344.946 190.197 344.946 196.17Z" fill="#1C1917"/>
<path d="M111.289 237.039H50.6144L0 26.4076H51.8719L74.1926 141.469L82.0519 205.287L93.0551 146.499L115.622 47.4119C118.42 35.1248 129.346 26.4076 141.948 26.4076H158.225C170.852 26.4076 181.793 35.1589 184.566 47.4775L206.859 146.499L217.548 205.287L225.721 141.469L248.356 26.4076H299.914L248.985 237.039H188.311L161.275 126.693L149.957 58.4738L138.64 126.693L111.289 237.039Z" fill="#1C1917"/>
</svg>
